<svg width="16" height="16" viewBox="0 0 16 16" fill="none" xmlns="http://www.w3.org/2000/svg">
<path d="M9.5 13V9.99998C9.5 9.86737 9.44732 9.7402 9.35355 9.64643C9.25979 9.55266 9.13261 9.49998 9 9.49998H7C6.86739 9.49998 6.74021 9.55266 6.64645 9.64643C6.55268 9.7402 6.5 9.86737 6.5 9.99998V13C6.5 13.1326 6.44732 13.2598 6.35355 13.3535C6.25979 13.4473 6.13261 13.5 6 13.5H3C2.86739 13.5 2.74021 13.4473 2.64645 13.3535C2.55268 13.2598 2.5 13.1326 2.5 13V7.21873C2.50112 7.14953 2.51607 7.08126 2.54398 7.01793C2.57189 6.9546 2.61219 6.8975 2.6625 6.84998L7.6625 2.30623C7.75467 2.22191 7.87507 2.17514 8 2.17514C8.12493 2.17514 8.24533 2.22191 8.3375 2.30623L13.3375 6.84998C13.3878 6.8975 13.4281 6.9546 13.456 7.01793C13.4839 7.08126 13.4989 7.14953 13.5 7.21873V13C13.5 13.1326 13.4473 13.2598 13.3536 13.3535C13.2598 13.4473 13.1326 13.5 13 13.5H10C9.86739 13.5 9.74021 13.4473 9.64645 13.3535C9.55268 13.2598 9.5 13.1326 9.5 13Z" stroke="white" stroke-linecap="round" stroke-linejoin="round"/>
</svg>
