<svg width="24" height="25" viewBox="0 0 24 25" fill="none" xmlns="http://www.w3.org/2000/svg">
<path d="M9.34311 13.4234C8.41313 12.6608 7.22905 12.2207 5.90312 12.2207C2.46077 12.2207 0 14.6876 0 18.1538C0 21.6322 2.46077 24.1288 5.90312 24.1288C7.2094 24.1288 8.3758 23.7019 9.29726 22.961V23.7502H12.63V12.5582H9.3545L9.34311 13.4234ZM6.4222 20.7154C4.96974 20.7154 3.9021 19.6244 3.9021 18.1632C3.9021 16.7105 4.96096 15.6195 6.4222 15.6195C7.87466 15.6195 8.9423 16.7105 8.9423 18.1632C8.94178 19.6244 7.87401 20.7154 6.42168 20.7154H6.4222Z" fill="#97A1A8"/>
<path d="M23.9556 13.1986V12.5698H14.2148V15.9731H18.5914L14.2788 23.1898V23.7619H23.9997V20.3346H19.7034L23.9556 13.1986Z" fill="#97A1A8"/>
<path d="M17.2505 0H16.258L17.2796 1.07662C12.4264 5.30314 5.46025 5.88156 0.000488281 2.80548C0.672065 3.96066 1.49551 5.02171 2.44908 5.9606C8.08894 11.52 17.0308 11.7505 22.8994 6.66141L23.9457 7.64363V6.6006L23.9486 6.60347V0H17.2505Z" fill="#97A1A8"/>
</svg>
