<svg viewBox="0 0 3000 3000" xmlns="http://www.w3.org/2000/svg"><path d="m1297.16 1603.87c-71-58.56-161.4-92.36-262.63-92.36-262.81 0-450.68 189.45-450.68 455.64 0 267.12 187.87 458.85 450.68 458.85 99.73 0 188.78-32.78 259.13-89.68v60.61h254.44v-859.5h-250.07zm-223 560c-110.89 0-192.4-83.79-192.4-196 0-111.56 80.84-195.35 192.4-195.35 110.89 0 192.4 83.79 192.4 195.35-.04 112.21-81.56 196-192.44 196z" fill="#59666f"/><path d="m2412.78 1586.62v-48.29h-743.66v261.36h334.13l-329.25 554.21v43.93h742.15v-263.2h-328z" fill="#59666f"/><path d="m1900.85 573h-75.78l78 82.68c-370.52 324.58-902.36 369-1319.19 132.77a1153.19 1153.19 0 0 0 186.94 242.3c430.58 426.94 1113.25 444.64 1561.3 53.82l79.88 75.43v-80.1l.22.22v-507.12z" fill="#fe7c6e"/></svg>